<?xml version="1.0" encoding="UTF-8"?><svg id="a" xmlns="http://www.w3.org/2000/svg" xmlns:xlink="http://www.w3.org/1999/xlink" viewBox="0 0 255.65 256"><defs><linearGradient id="d" x1="34.13" y1="35.37" x2="173.53" y2="174.77" gradientUnits="userSpaceOnUse"><stop offset="0" stop-color="#007fff"/><stop offset="1" stop-color="#2a52be"/></linearGradient><linearGradient id="f" x1="146.36" y1="146.1" x2="236.9" y2="236.64" gradientUnits="userSpaceOnUse"><stop offset="0" stop-color="#007fff"/><stop offset="1" stop-color="#2a52be"/></linearGradient><linearGradient id="g" x1="186.62" y1="175.19" x2="213.64" y2="202.21" gradientUnits="userSpaceOnUse"><stop offset="0" stop-color="#007fff"/><stop offset="1" stop-color="#2a52be"/></linearGradient></defs><g id="c"><path d="M106.75,213.74h-45.38v-44.75h45.78c1.83-6.63,4.42-12.94,7.68-18.83h-53.46v-44.75h54.94v42.18c5.36-8.94,12.27-16.84,20.38-23.32v-18.86h50.2c1.3-.06,2.61-.09,3.92-.09,6.75,0,13.31.77,19.61,2.23.02-36.31-.02-67.63-.19-72.8-.44-13.29-12.41-13.74-12.41-13.74,0,0-132.48-.44-144.44,0-11.96.44-11.96,12.85-11.96,12.85,0,0-.44,173.24,0,186.53.44,13.29,15.95,13.29,15.95,13.29h57.24c-3.4-6.22-6.07-12.91-7.87-19.94ZM136.69,41.83h54.94v44.75h-54.94v-44.75ZM61.37,41.83h54.94v44.75h-54.94v-44.75Z" fill="url(#d)"/></g><g id="e"><path d="M191.63,127.35c-35.36,0-64.02,28.66-64.02,64.02s28.66,64.02,64.02,64.02,64.02-28.66,64.02-64.02-28.66-64.02-64.02-64.02ZM190.82,235.53c-23.98,0-43.43-19.44-43.43-43.43s19.44-43.43,43.43-43.43,43.43,19.44,43.43,43.43-19.44,43.43-43.43,43.43Z" fill="url(#f)"/><polygon points="197.48 192.13 209.1 171.07 197.27 164.54 181.03 193.97 181.04 193.97 181.02 193.99 199.81 214.99 209.88 205.98 197.48 192.13" fill="url(#g)"/></g></svg>